<svg id="Ebene_1" data-name="Ebene 1" xmlns="http://www.w3.org/2000/svg" viewBox="-5 -5 19 23">
    <polygon points="8.66 4    5.34 4    3 6.34    3 12.66    5.34 15    8.66 15    11 12.66    11 6.34    8.66 4"   style="fill:rgb(255,255,0)"/>
    <rect x="6" y="1" width="2" height="3" style="fill:rgb(0,0,255)"/>
    <rect x="11" y="2" width="1.5" height="3"  style="fill:rgb(255,0,0)"/>
    <polygon points="12.5 5 9.5 7 8 6 11 4 12.5 5" />
    <rect x="1.5" y="2" width="1.5" height="3" transform="translate(4.5 7) rotate(-180)"   style="fill:rgb(0,255,0)"/>
    <polygon points="1.5 5 4.5 7 6 6 3 4 1.5 5"/>
    <rect x="11" y="14" width="1.5" height="3"  style="fill:rgb(255,0,255)"/>
    <polygon points="12.5 14 9.5 12 8 13 11 15 12.5 14"/>
    <rect x="1.5" y="14" width="1.5" height="3" transform="translate(4.5 31) rotate(180)"  style="fill:rgb(0,255,255)"/>
    <polygon points="1.5 14 4.5 12 6 13 3 15 1.5 14"/>
    <polygon points="6.5 15 7 16 7.5 15 6.5 15"   style="fill:rgb(128,128,0)"/>
</svg>



