<svg id="Ebene_1" data-name="Ebene 1" xmlns="http://www.w3.org/2000/svg" viewBox="-9 -10 50 50"  style="fill:rgb(0,100,0)">
    <polygon transform="translate(0, 10) rotate(-90) scale(0.75, 0.75)" points=" 0, 16   -2, 14   -1, 10   -4, 7   -7, 9   -9, 8   -6, 5   -7, 1   -5, -3   -8, -6   -6, -8   -4, -5   0, -7   4, -5   6, -8   8, -6   5, -3   7, 1   6, 5   9, 8   7, 9   4, 7   1, 10   2, 14"/>

    <polygon transform="translate(30, 0) rotate(-135) scale(0.5, 0.5)" points=" 1, -4   2, -3   2, -2.5   5, -2.5   9, -4.5   8, -0.5   6, 2.5   2, 3.5   2, 4   0, 7   -2, 4   -2, 3.5   -6, 2.5   -8, -0.5   -9, -4.5   -5, -2.5   -2, -2.5   -2, -3   -1, -4   -3, -7   0, -6   3, -7   1, -4"/>

</svg>